<svg width="20" height="20" viewBox="0 0 20 20" fill="none" xmlns="http://www.w3.org/2000/svg">
<path d="M16.9088 10.8218L10.0076 17.7143L3.10643 10.8218C2.65123 10.3751 2.29268 9.83821 2.05335 9.24492C1.81402 8.65163 1.6991 8.0148 1.71583 7.37453C1.73255 6.73426 1.88056 6.10441 2.15053 5.52465C2.4205 4.94489 2.80658 4.42778 3.28447 4.00589C3.76235 3.58399 4.32169 3.26644 4.92725 3.07325C5.53281 2.88005 6.17148 2.81538 6.80304 2.88332C7.43461 2.95126 8.04538 3.15033 8.5969 3.468C9.14842 3.78567 9.62874 4.21506 10.0076 4.72912C10.3881 4.21879 10.869 3.79316 11.4202 3.47886C11.9713 3.16456 12.5808 2.96836 13.2106 2.90255C13.8404 2.83673 14.4769 2.90271 15.0802 3.09636C15.6836 3.29001 16.2408 3.60716 16.717 4.02796C17.1932 4.44876 17.5782 4.96414 17.8478 5.54187C18.1174 6.11959 18.2658 6.74722 18.2838 7.38546C18.3018 8.0237 18.189 8.65881 17.9524 9.25106C17.7158 9.8433 17.3605 10.3799 16.9088 10.8273" stroke="currentColor" stroke-linecap="round" stroke-linejoin="round" fill="none"/>
</svg>
