<svg width="18" height="21" viewBox="0 0 18 21" fill="none" xmlns="http://www.w3.org/2000/svg">
<path d="M10.375 12.7273H0.034091V10.5398H10.375C11.3295 10.5398 12.1184 10.3741 12.7415 10.0426C13.3646 9.70455 13.8286 9.24716 14.1335 8.67045C14.4384 8.08712 14.5909 7.42424 14.5909 6.68182C14.5909 5.93939 14.4384 5.27983 14.1335 4.70312C13.8286 4.11979 13.3646 3.66241 12.7415 3.33097C12.1184 2.9929 11.3295 2.82386 10.375 2.82386H5.72159V21H3.25568V0.636363H10.375C11.8864 0.636363 13.1326 0.911458 14.1136 1.46165C15.0947 2.01184 15.8239 2.74432 16.3011 3.65909C16.7784 4.57386 17.017 5.58144 17.017 6.68182C17.017 7.7822 16.7784 8.78977 16.3011 9.70455C15.8239 10.6193 15.0947 11.3518 14.1136 11.902C13.1326 12.4522 11.8864 12.7273 10.375 12.7273ZM10.2159 14.6364V16.8239H0.034091V14.6364H10.2159Z" fill="currentColor"/>
</svg>
