<svg xmlns="http://www.w3.org/2000/svg" xmlns:xlink="http://www.w3.org/1999/xlink"><symbol id="arrow" viewBox="0 0 20 20">
<path d="M3.33337 10H16.6667" stroke="currentColor" stroke-width="1.5" stroke-linecap="round" stroke-linejoin="round" fill="none"/>
<path d="M8.33338 5L3.38547 9.94792C3.3567 9.97667 3.3567 10.0233 3.38547 10.0521L8.33338 15" stroke="currentColor" stroke-width="1.5" stroke-linecap="round" stroke-linejoin="round" fill="none"/>
</symbol><symbol id="bag" viewBox="0 0 20 20">
<path d="M6.85711 4.62502C7.43524 0.735771 13.0339 0.752342 13.7143 4.62502M17.4184 6.33966L18.8334 15.4386C18.8781 15.7265 18.8595 16.0207 18.7786 16.3009C18.6978 16.581 18.5568 16.8406 18.3651 17.0618C18.1735 17.2831 17.9358 17.4607 17.6684 17.5825C17.4009 17.7044 17.11 17.7676 16.8156 17.7679H3.18642C2.8918 17.7679 2.60066 17.7049 2.33295 17.5832C2.06525 17.4614 1.82731 17.2839 1.63546 17.0626C1.4436 16.8414 1.30237 16.5817 1.22143 16.3014C1.1405 16.021 1.12178 15.7267 1.16657 15.4386L2.58159 6.33966C2.65581 5.86206 2.90043 5.42655 3.27114 5.11202C3.64185 4.79749 4.11414 4.62472 4.60246 4.62502H15.3995C15.8877 4.62496 16.3597 4.79784 16.7302 5.11235C17.1007 5.42686 17.3452 5.86223 17.4194 6.33966H17.4184Z" stroke="currentColor" stroke-linejoin="round" fill="none"/>
</symbol><symbol id="close" viewBox="0 0 22 22">
<path d="M17.5 4.5L4.5 17.5" stroke="currentColor" stroke-width="1.5"/>
<path d="M4.5 4.5L17.5 17.5" stroke="currentColor" stroke-width="1.5"/>
</symbol><symbol id="like" viewBox="0 0 20 20">
<path d="M16.9088 10.8218L10.0076 17.7143L3.10643 10.8218C2.65123 10.3751 2.29268 9.83821 2.05335 9.24492C1.81402 8.65163 1.6991 8.0148 1.71583 7.37453C1.73255 6.73426 1.88056 6.10441 2.15053 5.52465C2.4205 4.94489 2.80658 4.42778 3.28447 4.00589C3.76235 3.58399 4.32169 3.26644 4.92725 3.07325C5.53281 2.88005 6.17148 2.81538 6.80304 2.88332C7.43461 2.95126 8.04538 3.15033 8.5969 3.468C9.14842 3.78567 9.62874 4.21506 10.0076 4.72912C10.3881 4.21879 10.869 3.79316 11.4202 3.47886C11.9713 3.16456 12.5808 2.96836 13.2106 2.90255C13.8404 2.83673 14.4769 2.90271 15.0802 3.09636C15.6836 3.29001 16.2408 3.60716 16.717 4.02796C17.1932 4.44876 17.5782 4.96414 17.8478 5.54187C18.1174 6.11959 18.2658 6.74722 18.2838 7.38546C18.3018 8.0237 18.189 8.65881 17.9524 9.25106C17.7158 9.8433 17.3605 10.3799 16.9088 10.8273" stroke="currentColor" stroke-linecap="round" stroke-linejoin="round" fill="none"/>
</symbol><symbol id="logo" viewBox="0 0 100 22">
<path d="M5.22161 18.7068C5.22161 19.3632 5.29031 19.8385 5.42772 20.1327C5.56514 20.427 5.81705 20.6307 6.18348 20.7438C6.54991 20.8344 7.14536 20.8796 7.96982 20.8796H11.7143C13.0197 20.8796 14.0617 20.4835 14.8404 19.6914C15.619 18.8992 16.1343 17.8014 16.3862 16.3981C16.3862 16.3302 16.4435 16.3076 16.558 16.3302C16.6954 16.3302 16.7641 16.3642 16.7641 16.4321C16.558 18.3107 16.4549 19.8611 16.4549 21.0833C16.4549 21.2644 16.4206 21.4002 16.3519 21.4907C16.2832 21.5586 16.1458 21.5926 15.9396 21.5926H0.0687054C0.0229018 21.5926 0 21.5247 0 21.3889C0 21.2531 0.0229018 21.1852 0.0687054 21.1852C0.938973 21.1852 1.56877 21.1286 1.9581 21.0154C2.37034 20.9023 2.64516 20.6872 2.78257 20.3704C2.91998 20.0309 2.98868 19.5216 2.98868 18.8426V3.12346C2.98868 2.44445 2.91998 1.9465 2.78257 1.62963C2.64516 1.31276 2.37034 1.09774 1.9581 0.984567C1.56877 0.848765 0.938973 0.780864 0.0687054 0.780864C0.0229018 0.780864 0 0.712963 0 0.577161C0 0.441359 0.0229018 0.373458 0.0687054 0.373458L1.75199 0.407408C2.71386 0.452675 3.49252 0.475309 4.08797 0.475309C4.72922 0.475309 5.53078 0.452675 6.49266 0.407408L8.14159 0.373458C8.21029 0.373458 8.24464 0.441359 8.24464 0.577161C8.24464 0.712963 8.21029 0.780864 8.14159 0.780864C7.29422 0.780864 6.66442 0.848765 6.25219 0.984567C5.86286 1.09774 5.58804 1.32407 5.42772 1.66358C5.29031 1.98045 5.22161 2.4784 5.22161 3.15741V18.7068Z" fill="currentColor"/>
<path d="M32.2102 22C30.0803 22 28.1794 21.5134 26.5076 20.5401C24.8587 19.5442 23.5762 18.2088 22.6601 16.534C21.7669 14.8364 21.3204 12.9918 21.3204 11C21.3204 8.66873 21.9158 6.67695 23.1067 5.02469C24.2976 3.34979 25.8206 2.09362 27.6756 1.25617C29.5536 0.418724 31.4659 0 33.4125 0C35.5882 0 37.5005 0.509259 39.1494 1.52778C40.7983 2.52366 42.0579 3.84774 42.9282 5.5C43.8214 7.15226 44.268 8.90638 44.268 10.7623C44.268 12.822 43.7183 14.7119 42.619 16.4321C41.5197 18.1523 40.0426 19.5103 38.1875 20.5062C36.3554 21.5021 34.3629 22 32.2102 22ZM33.4125 21.287C34.9698 21.287 36.3668 20.9136 37.6035 20.1667C38.8631 19.4198 39.8479 18.322 40.5579 16.8735C41.2907 15.4249 41.6572 13.7047 41.6572 11.713C41.6572 9.58539 41.2564 7.69547 40.4548 6.04321C39.6532 4.39095 38.5196 3.10082 37.0539 2.17284C35.6111 1.24486 33.9163 0.780864 31.9697 0.780864C29.4505 0.780864 27.4809 1.58436 26.061 3.19136C24.6411 4.79835 23.9312 7.00514 23.9312 9.81173C23.9312 11.9393 24.3319 13.8858 25.1335 15.6512C25.9351 17.394 27.0573 18.7747 28.5001 19.7932C29.9429 20.7891 31.5804 21.287 33.4125 21.287Z" fill="currentColor"/>
<path d="M62.305 22C59.8087 22 57.633 21.5247 55.7779 20.5741C53.9229 19.6235 52.503 18.3333 51.5182 16.7037C50.5563 15.0741 50.0754 13.2521 50.0754 11.2377C50.0754 9.04218 50.6365 7.09568 51.7587 5.39815C52.9038 3.70062 54.4611 2.37654 56.4306 1.42593C58.4231 0.475309 60.6675 0 63.1638 0C64.286 0 65.3509 0.113169 66.3586 0.339506C67.3892 0.54321 68.2251 0.837449 68.8663 1.22222C69.0495 1.33539 69.1526 1.43724 69.1755 1.52778C69.2213 1.59568 69.2556 1.75412 69.2785 2.00309L69.6908 5.80556C69.6908 5.87346 69.6221 5.91872 69.4847 5.94136C69.3702 5.94136 69.3015 5.90741 69.2785 5.83951C68.7747 4.20988 67.8586 2.9537 66.5303 2.07099C65.2249 1.18827 63.6104 0.746914 61.6866 0.746914C58.801 0.746914 56.5681 1.57305 54.9878 3.22531C53.4076 4.87757 52.6175 7.14095 52.6175 10.0154C52.6175 12.2109 53.0641 14.18 53.9572 15.9228C54.8733 17.643 56.1329 18.9897 57.736 19.963C59.3392 20.9362 61.137 21.4228 63.1294 21.4228C64.2974 21.4228 65.202 21.321 65.8433 21.1173C66.4845 20.9136 66.954 20.5175 67.2517 19.929C67.5495 19.3405 67.6983 18.4691 67.6983 17.3148C67.6983 16.1379 67.6182 15.323 67.4579 14.8704C67.3204 14.3951 66.9884 14.0782 66.4616 13.9198C65.9578 13.7613 65.0761 13.6821 63.8165 13.6821C63.6791 13.6821 63.6104 13.5916 63.6104 13.4105C63.6104 13.3426 63.6218 13.286 63.6447 13.2407C63.6905 13.1728 63.7363 13.1389 63.7821 13.1389C65.5685 13.2521 67.0113 13.3086 68.1106 13.3086C69.1869 13.3086 70.3091 13.2747 71.4771 13.2068C71.5229 13.2068 71.5573 13.2407 71.5802 13.3086C71.626 13.3539 71.6489 13.3992 71.6489 13.4444C71.6489 13.6029 71.5916 13.6821 71.4771 13.6821C70.9275 13.6595 70.5381 13.7387 70.3091 13.9198C70.0801 14.0782 69.9312 14.4177 69.8625 14.9383C69.7938 15.4588 69.7595 16.3642 69.7595 17.6543C69.7595 18.6728 69.7938 19.3971 69.8625 19.8272C69.9541 20.2572 70 20.5288 70 20.642C70 20.7778 69.9771 20.8683 69.9312 20.9136C69.8854 20.9588 69.7824 21.0041 69.6221 21.0494C66.851 21.6831 64.4119 22 62.305 22Z" fill="currentColor"/>
<path d="M87.9422 22C85.8123 22 83.9115 21.5134 82.2397 20.5401C80.5907 19.5442 79.3082 18.2088 78.3922 16.534C77.499 14.8364 77.0524 12.9918 77.0524 11C77.0524 8.66873 77.6479 6.67695 78.8388 5.02469C80.0296 3.34979 81.5526 2.09362 83.4077 1.25617C85.2856 0.418724 87.1979 0 89.1446 0C91.3202 0 93.2325 0.509259 94.8815 1.52778C96.5304 2.52366 97.79 3.84774 98.6603 5.5C99.5534 7.15226 100 8.90638 100 10.7623C100 12.822 99.4504 14.7119 98.3511 16.4321C97.2518 18.1523 95.7746 19.5103 93.9196 20.5062C92.0874 21.5021 90.095 22 87.9422 22ZM89.1446 21.287C90.7019 21.287 92.0989 20.9136 93.3356 20.1667C94.5952 19.4198 95.58 18.322 96.2899 16.8735C97.0228 15.4249 97.3892 13.7047 97.3892 11.713C97.3892 9.58539 96.9884 7.69547 96.1869 6.04321C95.3853 4.39095 94.2517 3.10082 92.7859 2.17284C91.3431 1.24486 89.6484 0.780864 87.7017 0.780864C85.1825 0.780864 83.213 1.58436 81.7931 3.19136C80.3732 4.79835 79.6632 7.00514 79.6632 9.81173C79.6632 11.9393 80.064 13.8858 80.8656 15.6512C81.6671 17.394 82.7893 18.7747 84.2321 19.7932C85.6749 20.7891 87.3124 21.287 89.1446 21.287Z" fill="currentColor"/>
</symbol><symbol id="man" viewBox="0 0 20 20">
<path d="M15.8062 7.52C15.8062 10.7586 13.1822 13.3263 9.92902 13.3263C6.67585 13.3263 4.05188 10.7586 4.05188 7.52C4.05188 4.27414 6.68317 1.64285 9.92902 1.64285C13.1749 1.64285 15.8062 4.27414 15.8062 7.52Z" stroke="currentColor" fill="none"/>
<path d="M1.14282 19.0743V19.0743C4.96511 12.061 15.0348 12.061 18.8571 19.0743V19.0743" stroke="currentColor" fill="none"/>
</symbol><symbol id="minus" viewBox="0 0 32 32">
<path d="M10 16H22" stroke="currentColor" stroke-width="2" stroke-linecap="round" stroke-linejoin="round"/>
</symbol><symbol id="plus" viewBox="0 0 32 32">
<path d="M10 16H22" stroke="currentColor" stroke-width="2" stroke-linecap="round" stroke-linejoin="round"/>
<path d="M16 10L16 22" stroke="currentColor" stroke-width="2" stroke-linecap="round" stroke-linejoin="round"/>
</symbol><symbol id="rouble" viewBox="0 0 18 21">
<path d="M10.375 12.7273H0.034091V10.5398H10.375C11.3295 10.5398 12.1184 10.3741 12.7415 10.0426C13.3646 9.70455 13.8286 9.24716 14.1335 8.67045C14.4384 8.08712 14.5909 7.42424 14.5909 6.68182C14.5909 5.93939 14.4384 5.27983 14.1335 4.70312C13.8286 4.11979 13.3646 3.66241 12.7415 3.33097C12.1184 2.9929 11.3295 2.82386 10.375 2.82386H5.72159V21H3.25568V0.636363H10.375C11.8864 0.636363 13.1326 0.911458 14.1136 1.46165C15.0947 2.01184 15.8239 2.74432 16.3011 3.65909C16.7784 4.57386 17.017 5.58144 17.017 6.68182C17.017 7.7822 16.7784 8.78977 16.3011 9.70455C15.8239 10.6193 15.0947 11.3518 14.1136 11.902C13.1326 12.4522 11.8864 12.7273 10.375 12.7273ZM10.2159 14.6364V16.8239H0.034091V14.6364H10.2159Z" fill="currentColor"/>
</symbol><symbol id="search" viewBox="0 0 20 20">
<path d="M14.6031 14.6031L18.2857 18.2857" stroke="currentColor" stroke-linejoin="round"/>
<path d="M16.4443 9.07933C16.4443 13.147 13.1469 16.4444 9.07927 16.4444C5.01167 16.4444 1.71423 13.147 1.71423 9.07933C1.71423 5.01173 5.01167 1.71429 9.07927 1.71429C13.1469 1.71429 16.4443 5.01173 16.4443 9.07933Z" stroke="currentColor" fill="none"/>
</symbol></svg>