<svg width="20" height="20" viewBox="0 0 20 20" fill="none" xmlns="http://www.w3.org/2000/svg">
<path d="M6.85711 4.62502C7.43524 0.735771 13.0339 0.752342 13.7143 4.62502M17.4184 6.33966L18.8334 15.4386C18.8781 15.7265 18.8595 16.0207 18.7786 16.3009C18.6978 16.581 18.5568 16.8406 18.3651 17.0618C18.1735 17.2831 17.9358 17.4607 17.6684 17.5825C17.4009 17.7044 17.11 17.7676 16.8156 17.7679H3.18642C2.8918 17.7679 2.60066 17.7049 2.33295 17.5832C2.06525 17.4614 1.82731 17.2839 1.63546 17.0626C1.4436 16.8414 1.30237 16.5817 1.22143 16.3014C1.1405 16.021 1.12178 15.7267 1.16657 15.4386L2.58159 6.33966C2.65581 5.86206 2.90043 5.42655 3.27114 5.11202C3.64185 4.79749 4.11414 4.62472 4.60246 4.62502H15.3995C15.8877 4.62496 16.3597 4.79784 16.7302 5.11235C17.1007 5.42686 17.3452 5.86223 17.4194 6.33966H17.4184Z" stroke="currentColor" stroke-linejoin="round" fill="none"/>
</svg>
